<svg xmlns="http://www.w3.org/2000/svg" xmlns:xlink="http://www.w3.org/1999/xlink" width="55" zoomAndPan="magnify" viewBox="0 0 41.25 32.999998" height="44" preserveAspectRatio="xMidYMid meet" version="1.0"><defs><clipPath id="b9c4c7df60"><path d="M 6 0.292969 L 32.46875 0.292969 L 32.46875 32.703125 L 6 32.703125 Z M 6 0.292969 " clip-rule="nonzero"/></clipPath></defs><g clip-path="url(#b9c4c7df60)"><path fill="#000000" d="M 16.828125 28.28125 C 16.355469 28.332031 15.949219 28.382812 15.546875 28.425781 C 13.453125 28.632812 11.628906 28.066406 10.246094 26.433594 C 9.816406 25.921875 9.570312 25.261719 9.203125 24.691406 C 8.636719 23.800781 8.054688 22.914062 7.425781 22.058594 C 7.210938 21.765625 6.835938 21.59375 6.550781 21.339844 C 6.457031 21.261719 6.425781 21.109375 6.363281 20.988281 C 6.492188 20.9375 6.613281 20.851562 6.742188 20.835938 C 8.398438 20.6875 9.5625 21.449219 10.375 22.820312 C 11.390625 24.535156 12.859375 25.46875 14.851562 25.46875 C 15.425781 25.46875 16 25.273438 16.570312 25.144531 C 16.675781 25.117188 16.808594 24.953125 16.820312 24.828125 C 16.921875 24.082031 17.015625 23.332031 17.359375 22.648438 C 17.492188 22.398438 17.640625 22.160156 17.792969 21.902344 C 17.210938 21.785156 16.648438 21.699219 16.09375 21.5625 C 13.542969 20.914062 11.433594 19.636719 10.210938 17.203125 C 9.734375 16.253906 9.46875 15.234375 9.433594 14.167969 C 9.375 12.527344 9.398438 10.882812 9.730469 9.261719 C 9.964844 8.125 10.398438 7.070312 11.261719 6.25 C 11.449219 6.070312 11.484375 5.910156 11.382812 5.636719 C 10.902344 4.292969 10.851562 2.925781 11.261719 1.550781 C 11.347656 1.257812 11.425781 0.960938 11.511719 0.652344 C 13.484375 1.027344 14.65625 2.355469 15.757812 3.832031 C 16.894531 2.988281 18.238281 2.917969 19.546875 2.832031 C 21.101562 2.730469 22.664062 2.753906 24.210938 3.003906 C 25.015625 3.132812 25.511719 3.300781 26.296875 3.765625 C 26.972656 3.070312 27.605469 2.363281 28.300781 1.722656 C 28.855469 1.214844 29.546875 0.890625 30.292969 0.714844 C 30.503906 0.667969 30.613281 0.6875 30.699219 0.917969 C 31.28125 2.507812 31.367188 4.089844 30.726562 5.679688 C 30.640625 5.894531 30.648438 6.046875 30.828125 6.21875 C 31.863281 7.207031 32.335938 8.476562 32.496094 9.851562 C 32.640625 11.125 32.71875 12.40625 32.71875 13.6875 C 32.71875 15.507812 32.179688 17.175781 31.035156 18.605469 C 30.230469 19.621094 29.1875 20.347656 28.007812 20.894531 C 26.863281 21.417969 25.667969 21.722656 24.433594 21.878906 C 24.402344 21.886719 24.375 21.910156 24.324219 21.929688 C 25.171875 23.144531 25.308594 24.511719 25.296875 25.929688 C 25.273438 27.996094 25.28125 30.050781 25.296875 32.117188 C 25.296875 32.441406 25.203125 32.519531 24.886719 32.519531 C 22.332031 32.503906 19.777344 32.503906 17.222656 32.519531 C 16.90625 32.519531 16.808594 32.417969 16.808594 32.109375 C 16.820312 30.992188 16.8125 29.878906 16.8125 28.765625 C 16.828125 28.597656 16.828125 28.453125 16.828125 28.28125 Z M 16.828125 28.28125 " fill-opacity="1" fill-rule="nonzero"/></g></svg>