<svg xmlns="http://www.w3.org/2000/svg" xmlns:xlink="http://www.w3.org/1999/xlink" width="55" zoomAndPan="magnify" viewBox="0 0 41.25 32.999998" height="44" preserveAspectRatio="xMidYMid meet" version="1.0"><defs><clipPath id="9877d6b1d9"><path d="M 0 2 L 40.511719 2 L 40.511719 23 L 0 23 Z M 0 2 " clip-rule="nonzero"/></clipPath><clipPath id="4b1641f770"><path d="M 31 1.773438 L 40.511719 1.773438 L 40.511719 32.703125 L 31 32.703125 Z M 31 1.773438 " clip-rule="nonzero"/></clipPath><clipPath id="4e9936b836"><path d="M 31 1.773438 L 40.511719 1.773438 L 40.511719 15 L 31 15 Z M 31 1.773438 " clip-rule="nonzero"/></clipPath><clipPath id="86b214f828"><path d="M 0 1.773438 L 10 1.773438 L 10 32.703125 L 0 32.703125 Z M 0 1.773438 " clip-rule="nonzero"/></clipPath><clipPath id="1d4c6cb6da"><path d="M 0 1.773438 L 10 1.773438 L 10 15 L 0 15 Z M 0 1.773438 " clip-rule="nonzero"/></clipPath></defs><g clip-path="url(#9877d6b1d9)"><path fill="#ea4435" d="M 21.46875 22.03125 L 2.773438 10.136719 C 2.535156 9.976562 2.3125 9.796875 2.109375 9.597656 C 1.902344 9.394531 1.722656 9.175781 1.558594 8.9375 C 1.398438 8.703125 1.261719 8.449219 1.148438 8.1875 C 1.035156 7.921875 0.949219 7.652344 0.890625 7.371094 C 0.828125 7.089844 0.796875 6.804688 0.792969 6.519531 C 0.789062 6.230469 0.8125 5.949219 0.863281 5.664062 C 0.914062 5.382812 0.992188 5.109375 1.09375 4.839844 C 1.199219 4.574219 1.328125 4.320312 1.484375 4.078125 C 1.636719 3.835938 1.8125 3.609375 2.011719 3.402344 C 2.210938 3.195312 2.425781 3.007812 2.660156 2.839844 C 2.894531 2.675781 3.140625 2.535156 3.402344 2.417969 C 3.664062 2.300781 3.9375 2.207031 4.214844 2.144531 C 4.496094 2.078125 4.777344 2.042969 5.066406 2.03125 C 5.351562 2.023438 5.636719 2.039062 5.921875 2.085938 C 6.203125 2.132812 6.480469 2.207031 6.75 2.304688 C 7.015625 2.40625 7.273438 2.53125 7.519531 2.679688 L 21.234375 11.40625 L 33.550781 2.785156 C 33.789062 2.625 34.039062 2.488281 34.304688 2.375 C 34.566406 2.265625 34.839844 2.179688 35.121094 2.121094 C 35.402344 2.0625 35.6875 2.03125 35.976562 2.027344 C 36.261719 2.023438 36.546875 2.046875 36.828125 2.097656 C 37.113281 2.152344 37.386719 2.230469 37.65625 2.335938 C 37.921875 2.441406 38.175781 2.574219 38.417969 2.726562 C 38.660156 2.882812 38.882812 3.058594 39.089844 3.257812 C 39.300781 3.457031 39.484375 3.675781 39.648438 3.910156 C 39.816406 4.148438 39.953125 4.394531 40.070312 4.660156 C 40.1875 4.921875 40.277344 5.195312 40.339844 5.472656 C 40.402344 5.753906 40.4375 6.039062 40.445312 6.324219 C 40.453125 6.613281 40.433594 6.898438 40.386719 7.179688 C 40.339844 7.464844 40.265625 7.742188 40.164062 8.007812 C 40.0625 8.277344 39.933594 8.535156 39.78125 8.777344 C 39.628906 9.023438 39.457031 9.25 39.261719 9.460938 C 39.066406 9.671875 38.851562 9.859375 38.617188 10.027344 Z M 21.46875 22.03125 " fill-opacity="1" fill-rule="nonzero"/></g><g clip-path="url(#4b1641f770)"><path fill="#00ac47" d="M 37.558594 32.925781 L 31.664062 32.925781 L 31.664062 6.40625 C 31.664062 6.117188 31.691406 5.832031 31.75 5.546875 C 31.804688 5.261719 31.890625 4.984375 32 4.714844 C 32.113281 4.449219 32.246094 4.195312 32.410156 3.953125 C 32.570312 3.710938 32.753906 3.488281 32.957031 3.28125 C 33.164062 3.078125 33.386719 2.894531 33.628906 2.734375 C 33.871094 2.570312 34.125 2.4375 34.390625 2.324219 C 34.660156 2.214844 34.9375 2.128906 35.222656 2.074219 C 35.507812 2.015625 35.792969 1.988281 36.082031 1.988281 C 36.375 1.988281 36.660156 2.015625 36.945312 2.074219 C 37.230469 2.128906 37.507812 2.214844 37.773438 2.324219 C 38.042969 2.4375 38.296875 2.570312 38.539062 2.734375 C 38.78125 2.894531 39.003906 3.078125 39.207031 3.28125 C 39.414062 3.488281 39.597656 3.710938 39.757812 3.953125 C 39.917969 4.195312 40.054688 4.449219 40.167969 4.714844 C 40.277344 4.984375 40.363281 5.261719 40.417969 5.546875 C 40.476562 5.832031 40.503906 6.117188 40.503906 6.40625 L 40.503906 29.980469 C 40.503906 30.371094 40.429688 30.746094 40.277344 31.105469 C 40.128906 31.46875 39.917969 31.785156 39.640625 32.0625 C 39.363281 32.339844 39.046875 32.550781 38.683594 32.703125 C 38.324219 32.851562 37.949219 32.925781 37.558594 32.925781 Z M 37.558594 32.925781 " fill-opacity="1" fill-rule="nonzero"/></g><g clip-path="url(#4e9936b836)"><path fill="#ffba00" d="M 40.4375 5.765625 C 40.425781 5.679688 40.425781 5.589844 40.40625 5.5 C 40.378906 5.363281 40.328125 5.238281 40.285156 5.109375 C 40.246094 4.960938 40.199219 4.8125 40.144531 4.667969 C 40.117188 4.597656 40.070312 4.535156 40.039062 4.46875 C 39.945312 4.273438 39.839844 4.082031 39.71875 3.902344 C 39.660156 3.816406 39.585938 3.742188 39.523438 3.664062 C 39.410156 3.515625 39.289062 3.375 39.160156 3.242188 C 39.0625 3.148438 38.949219 3.066406 38.84375 2.980469 C 38.730469 2.886719 38.613281 2.792969 38.492188 2.707031 C 38.375 2.632812 38.246094 2.574219 38.121094 2.507812 C 37.992188 2.441406 37.863281 2.367188 37.730469 2.3125 C 37.597656 2.261719 37.457031 2.226562 37.320312 2.1875 C 37.183594 2.144531 37.050781 2.097656 36.910156 2.070312 C 36.734375 2.042969 36.558594 2.027344 36.382812 2.019531 C 36.269531 2.011719 36.160156 1.992188 36.046875 1.992188 C 35.839844 1.996094 35.632812 2.019531 35.425781 2.054688 C 35.34375 2.066406 35.257812 2.066406 35.175781 2.082031 C 34.898438 2.167969 34.621094 2.253906 34.34375 2.34375 C 34.269531 2.378906 34.203125 2.425781 34.128906 2.460938 C 33.753906 2.636719 33.414062 2.859375 33.105469 3.132812 C 32.796875 3.40625 32.53125 3.71875 32.3125 4.070312 C 32.09375 4.417969 31.929688 4.792969 31.820312 5.191406 C 31.707031 5.589844 31.65625 5.996094 31.664062 6.40625 L 31.664062 14.894531 L 38.617188 10.027344 C 38.957031 9.796875 39.261719 9.527344 39.523438 9.210938 C 39.785156 8.890625 39.996094 8.546875 40.160156 8.167969 C 40.320312 7.789062 40.425781 7.394531 40.472656 6.988281 C 40.519531 6.578125 40.507812 6.171875 40.4375 5.765625 Z M 40.4375 5.765625 " fill-opacity="1" fill-rule="nonzero"/></g><g clip-path="url(#86b214f828)"><path fill="#4285f4" d="M 5.144531 1.988281 C 5.4375 1.988281 5.722656 2.015625 6.007812 2.074219 C 6.292969 2.128906 6.570312 2.210938 6.835938 2.324219 C 7.105469 2.433594 7.359375 2.570312 7.601562 2.730469 C 7.84375 2.894531 8.066406 3.078125 8.269531 3.28125 C 8.476562 3.488281 8.660156 3.710938 8.820312 3.953125 C 8.980469 4.191406 9.117188 4.449219 9.230469 4.714844 C 9.339844 4.984375 9.425781 5.261719 9.480469 5.542969 C 9.539062 5.828125 9.566406 6.117188 9.566406 6.40625 L 9.566406 32.925781 L 3.671875 32.925781 C 3.28125 32.925781 2.90625 32.851562 2.546875 32.699219 C 2.183594 32.550781 1.867188 32.339844 1.589844 32.0625 C 1.3125 31.785156 1.101562 31.46875 0.949219 31.105469 C 0.800781 30.746094 0.726562 30.371094 0.726562 29.976562 L 0.726562 6.40625 C 0.726562 6.117188 0.753906 5.828125 0.8125 5.542969 C 0.867188 5.261719 0.953125 4.984375 1.0625 4.714844 C 1.171875 4.449219 1.308594 4.191406 1.472656 3.953125 C 1.632812 3.710938 1.816406 3.488281 2.019531 3.28125 C 2.226562 3.078125 2.449219 2.894531 2.691406 2.730469 C 2.933594 2.570312 3.1875 2.433594 3.453125 2.324219 C 3.722656 2.210938 4 2.128906 4.285156 2.074219 C 4.566406 2.015625 4.855469 1.988281 5.144531 1.988281 Z M 5.144531 1.988281 " fill-opacity="1" fill-rule="nonzero"/></g><g clip-path="url(#1d4c6cb6da)"><path fill="#c52528" d="M 0.789062 5.765625 C 0.804688 5.679688 0.804688 5.589844 0.820312 5.5 C 0.847656 5.363281 0.902344 5.238281 0.941406 5.109375 C 0.980469 4.960938 1.027344 4.8125 1.082031 4.667969 C 1.113281 4.597656 1.160156 4.539062 1.191406 4.46875 C 1.285156 4.273438 1.390625 4.082031 1.507812 3.902344 C 1.566406 3.816406 1.640625 3.742188 1.707031 3.664062 C 1.820312 3.515625 1.9375 3.375 2.070312 3.242188 C 2.167969 3.148438 2.277344 3.066406 2.386719 2.980469 C 2.5 2.886719 2.617188 2.792969 2.738281 2.707031 C 2.855469 2.632812 2.984375 2.574219 3.105469 2.507812 C 3.234375 2.4375 3.367188 2.371094 3.5 2.3125 C 3.632812 2.257812 3.769531 2.226562 3.90625 2.183594 C 4.042969 2.144531 4.179688 2.097656 4.320312 2.070312 C 4.496094 2.042969 4.671875 2.023438 4.847656 2.015625 C 4.960938 2.007812 5.070312 1.988281 5.183594 1.992188 C 5.390625 1.996094 5.597656 2.019531 5.804688 2.054688 C 5.886719 2.066406 5.96875 2.066406 6.050781 2.082031 C 6.195312 2.117188 6.335938 2.160156 6.472656 2.210938 C 6.613281 2.25 6.75 2.292969 6.882812 2.34375 C 6.960938 2.375 7.027344 2.425781 7.101562 2.460938 C 7.292969 2.550781 7.476562 2.652344 7.652344 2.769531 C 8.25 3.183594 8.71875 3.710938 9.058594 4.351562 C 9.394531 4.996094 9.566406 5.679688 9.566406 6.40625 L 9.566406 14.894531 L 2.613281 10.027344 C 2.269531 9.796875 1.96875 9.527344 1.707031 9.210938 C 1.445312 8.890625 1.230469 8.546875 1.070312 8.167969 C 0.910156 7.789062 0.804688 7.394531 0.757812 6.988281 C 0.710938 6.578125 0.71875 6.171875 0.789062 5.765625 Z M 0.789062 5.765625 " fill-opacity="1" fill-rule="nonzero"/></g></svg>